<svg width="90" height="226" viewBox="0 0 90 226" fill="none" xmlns="http://www.w3.org/2000/svg">
<path d="M8.63777 127.675C13.4049 127.675 17.2711 123.813 17.2731 119.045C17.2768 119.044 17.2845 66.3118 17.2845 66.3118C17.2845 65.8159 17.6855 65.4132 18.1834 65.4132H20.0118C20.5077 65.4132 20.9108 65.8143 20.9108 66.3118C20.9108 66.3118 20.9108 214.252 20.9108 214.27C20.9108 220.42 25.8967 225.405 32.0466 225.405C38.1969 225.405 43.1824 220.42 43.1824 214.27C43.1824 214.252 43.1824 127.214 43.1824 127.214C43.1824 126.578 43.4769 126.315 44.1024 126.315H45.898C46.5255 126.315 46.818 126.58 46.818 127.214C46.818 127.214 46.818 214.254 46.818 214.27C46.818 220.42 51.8044 225.405 57.9542 225.405C64.1041 225.405 69.09 220.42 69.09 214.27C69.09 214.252 69.09 66.3118 69.09 66.3118C69.09 65.8159 69.4907 65.4132 69.9886 65.4132H71.8174C72.3136 65.4132 72.7163 65.8143 72.7163 66.3118C72.7163 66.3118 72.7245 119.044 72.7277 119.045C72.7317 123.813 76.5963 127.675 81.363 127.675C86.1318 127.675 90 123.809 90 119.038C90 119.011 90 59.7438 90 59.0368C90 47.2192 80.9077 38.1265 69.545 38.1265C69.2565 38.1265 53.9811 38.1265 46.8176 38.1265C46.8176 38.1265 45.3822 38.1265 43.182 38.1265C36.0189 38.1265 20.7435 38.1265 20.455 38.1265C9.0903 38.1265 0 47.2168 0 59.0368C0 59.7438 0 119.011 0 119.038C0.00040513 123.809 3.86696 127.675 8.63777 127.675Z" fill="#6A6A6A"/>
<path d="M45.0014 33.1429C54.1536 33.1429 61.5729 25.7236 61.5729 16.5714C61.5729 7.41928 54.1536 0 45.0014 0C35.8493 0 28.43 7.41928 28.43 16.5714C28.43 25.7236 35.8493 33.1429 45.0014 33.1429Z" fill="#6A6A6A"/>
</svg>
